<svg width="24" height="25" viewBox="0 0 24 25" fill="none" xmlns="http://www.w3.org/2000/svg">
    <g clip-path="url(#clip0_460_18996)">
        <path d="M21.7163 3.92749H22.8563V9.64249H21.7163V3.92749Z" fill="black"/>
        <path d="M20.5764 9.64249H21.7164V10.7825H20.5764V9.64249Z" fill="black"/>
        <path d="M20.5764 2.78751H21.7164V3.92751H20.5764V2.78751Z" fill="black"/>
        <path d="M19.4287 10.7825H20.5762V11.93H19.4287V10.7825Z" fill="black"/>
        <path d="M18.2888 11.93H19.4288V13.07H18.2888V11.93Z" fill="black"/>
        <path d="M18.2889 2.78751H5.7189V3.92751H3.4314V6.21501H5.7189V7.35501H7.9989V8.50251H16.0014V7.35501H18.2889V6.21501H20.5764V3.92751H18.2889V2.78751Z"
              fill="black"/>
        <path d="M18.2888 1.64001H20.5763V2.78751H18.2888V1.64001Z" fill="black"/>
        <path d="M17.1414 13.07H18.2889V14.2175H17.1414V13.07Z" fill="black"/>
        <path d="M16.0012 14.2175H17.1412V15.3575H16.0012V14.2175Z" fill="black"/>
        <path d="M14.8613 15.3575H16.0013V16.4975H14.8613V15.3575Z" fill="black"/>
        <path d="M13.7139 16.4975H14.8614V22.2125H13.7139V16.4975Z" fill="black"/>
        <path d="M12.5737 22.2125H13.7137V23.36H12.5737V22.2125Z" fill="black"/>
        <path d="M10.2864 23.36H12.5739V24.5H10.2864V23.36Z" fill="black"/>
        <path d="M9.14624 16.4975H10.2862V23.36H9.14624V16.4975Z" fill="black"/>
        <path d="M7.99878 15.3575H9.14628V16.4975H7.99878V15.3575Z" fill="black"/>
        <path d="M6.85889 14.2175H7.99889V15.3575H6.85889V14.2175Z" fill="black"/>
        <path d="M5.71875 0.5H18.2887V1.64H5.71875V0.5Z" fill="black"/>
        <path d="M5.71875 13.07H6.85875V14.2175H5.71875V13.07Z" fill="black"/>
        <path d="M4.57129 11.93H5.71879V13.07H4.57129V11.93Z" fill="black"/>
        <path d="M3.4314 1.64001H5.7189V2.78751H3.4314V1.64001Z" fill="black"/>
        <path d="M3.4314 10.7825H4.5714V11.93H3.4314V10.7825Z" fill="black"/>
        <path d="M2.29126 9.64249H3.43126V10.7825H2.29126V9.64249Z" fill="black"/>
        <path d="M2.29126 2.78751H3.43126V3.92751H2.29126V2.78751Z" fill="black"/>
        <path d="M1.1438 3.92749H2.2913V9.64249H1.1438V3.92749Z" fill="black"/>
    </g>
    <defs>
        <clipPath id="clip0_460_18996">
            <rect width="24" height="24" fill="white" transform="translate(0 0.5)"/>
        </clipPath>
    </defs>
</svg>
