<svg width="952" height="121" viewBox="0 0 952 121" fill="none" xmlns="http://www.w3.org/2000/svg">
    <path d="M0.569824 0.5H75.0204V25.4513H26.023V48.5312H75.0204V73.4825H26.023V120.89H0.569824V0.5Z" fill="#DB3D3D"/>
    <path d="M93.9022 0.5H119.355V95.9387H165.807V0.5H191.261V120.89H93.9022V0.5Z" fill="#F3B43B"/>
    <path d="M210.142 0.5H235.596V26.6989H259.14V49.7788H235.596V120.89H210.142V0.5Z" fill="#45AA75"/>
    <path d="M282.684 72.8587V49.7788H259.14V72.8587H282.684Z" fill="#45AA75"/>
    <path d="M306.228 72.8587H282.684V95.9387H306.228V120.89H331.681V0.5H306.228V72.8587Z" fill="#45AA75"/>
    <path fill-rule="evenodd" clip-rule="evenodd"
          d="M350.563 0.5H446.97V120.89H350.563V96.812H374.511V24.578H350.563V0.5ZM423.022 96.812V72.734H399.074V96.812H423.022ZM423.022 48.656V24.578H399.074V48.656H423.022Z"
          fill="#161616"/>
    <path d="M465.852 0.5H489.8V96.812H538.311V120.89H465.852V0.5Z" fill="#161616"/>
    <path fill-rule="evenodd" clip-rule="evenodd"
          d="M557.193 0.5V120.89H653.6V0.5H557.193ZM629.651 96.812H581.141V24.578H629.651V96.812Z" fill="#161616"/>
    <path d="M672.482 0.5H744.94V24.578H696.43V96.812H744.94V120.89H672.482V0.5Z" fill="#161616"/>
    <path d="M836.281 0.5H860.229V24.578H836.281V0.5Z" fill="#DB3D3D"/>
    <path d="M763.822 0.5H787.77V48.656H812.333V72.734H787.77V120.89H763.822V0.5Z" fill="#161616"/>
    <path d="M836.281 96.812V72.734H812.333V96.812H836.281Z" fill="#161616"/>
    <path d="M836.281 96.812V120.89H860.229V96.812H836.281Z" fill="#161616"/>
    <path d="M812.333 48.656V24.578H836.281V48.656H812.333Z" fill="#161616"/>
    <path d="M879.111 0.5H951.57V24.578H903.059V48.656H951.57V120.89H879.111V96.812H927.622V72.734H879.111V0.5Z"
          fill="#161616"/>
</svg>
