<svg width="25" height="25" viewBox="0 0 25 25" fill="none" xmlns="http://www.w3.org/2000/svg">
    <g clip-path="url(#clip0_460_20180)">
        <path d="M24.047 12.354L16.5259 4.83289L15.2765 6.08229L20.2905 11.0964L19.0329 12.354L20.2823 13.6034L15.2765 18.6092L16.5341 19.8669L24.047 12.354Z"
              fill="black"/>
        <path d="M17.7749 11.0966L19.0325 12.3542L17.7831 13.6036L16.5255 12.346L17.7749 11.0966Z" fill="black"/>
        <path d="M15.2764 11.0966L16.5258 12.346L15.2764 13.5954L14.027 12.346L15.2764 11.0966Z" fill="black"/>
        <path d="M12.7773 11.0962L14.0267 12.3456L12.7691 13.6032L11.5197 12.3538L12.7773 11.0962Z" fill="black"/>
        <path d="M10.2622 11.0966L11.5198 12.3542L10.2704 13.6036L9.0128 12.346L10.2622 11.0966Z" fill="black"/>
        <path d="M7.76367 11.0966L9.01308 12.346L7.75545 13.6036L6.50605 12.3542L7.76367 11.0966Z" fill="black"/>
        <path d="M5.24805 11.0962L6.50567 12.3538L5.25627 13.6032L3.99864 12.3456L5.24805 11.0962Z" fill="black"/>
        <path d="M2.74951 11.0966L3.99892 12.346L2.74951 13.5954L1.5001 12.346L2.74951 11.0966Z" fill="black"/>
    </g>
    <defs>
        <clipPath id="clip0_460_20180">
            <rect width="24" height="24" fill="white" transform="translate(0.5 0.5)"/>
        </clipPath>
    </defs>
</svg>
