<svg width="51" height="51" viewBox="0 0 51 51" fill="none" xmlns="http://www.w3.org/2000/svg">
    <g clip-path="url(#clip0_460_20192)">
        <path d="M48.0971 7.21377H45.6978V4.81444H43.2826V2.39933H40.8833V0H4.79866V9.62888H7.21377V12.0282H9.6131V9.62888H38.484V12.0282H40.8833V36.0846H38.484V38.484H36.0689V40.8833H4.79866V38.484H2.39933V40.8833H0V50.5122H2.39933V43.2984H33.6695V50.5122H50.5122V9.62888H48.0971V7.21377ZM9.6131 7.21377H7.21377V2.39933H9.6131V7.21377ZM14.4275 7.21377H12.0124V2.39933H14.4275V7.21377ZM36.0689 7.21377H16.8269V2.39933H36.0689V7.21377ZM48.0971 24.0564H45.6978V12.0282H43.2826V9.62888H40.8833V7.21377H38.484V4.81444H40.8833V7.21377H43.2826V9.62888H45.6978V12.0282H48.0971V24.0564Z"
              fill="#161616"/>
        <path d="M31.2542 24.0565H33.6693V26.4558H31.2542V24.0565Z" fill="#161616"/>
        <path d="M26.4561 36.0847H33.6698V38.484H26.4561V36.0847Z" fill="#161616"/>
        <path d="M28.8547 19.2421H31.2541V21.6414H28.8547V19.2421Z" fill="#161616"/>
        <path d="M31.2543 50.5122V45.6978H24.0405V50.5122H26.4556V48.1129H28.855V50.5122H31.2543Z" fill="#161616"/>
        <path d="M21.6409 26.4557H31.254V28.8708H21.6409V26.4557Z" fill="#161616"/>
        <path d="M21.6409 19.2421H24.0402V21.6414H21.6409V19.2421Z" fill="#161616"/>
        <path d="M19.2422 24.0565H21.6415V26.4558H19.2422V24.0565Z" fill="#161616"/>
        <path d="M16.8269 36.0847H19.242V38.484H16.8269V36.0847Z" fill="#161616"/>
        <path d="M38.4837 33.6695V14.4275H14.4272V33.6695H38.4837ZM16.8266 16.8426H36.0686V31.2701H16.8266V16.8426Z"
              fill="#161616"/>
        <path d="M12.0129 36.0847H14.4281V38.484H12.0129V36.0847Z" fill="#161616"/>
        <path d="M9.61328 12.0281H12.0126V33.6694H9.61328V12.0281Z" fill="#161616"/>
        <path d="M7.21362 33.6696H9.61295V36.0847H7.21362V33.6696Z" fill="#161616"/>
        <path d="M4.79834 36.0847H7.21345V38.484H4.79834V36.0847Z" fill="#161616"/>
    </g>
    <defs>
        <clipPath id="clip0_460_20192">
            <rect width="50.5122" height="50.5122" fill="white"/>
        </clipPath>
    </defs>
</svg>
