<svg width="50" height="50" viewBox="0 0 50 50" fill="none" xmlns="http://www.w3.org/2000/svg">
    <g clip-path="url(#clip0_460_20309)">
        <path d="M47.6094 14.2812H45.2344V9.51562H42.8438V7.14062H40.4687V4.76562H35.7031V2.375H30.9531V0H19.0469V2.375H14.2812V4.76562H9.51562V7.14062H7.14062V9.51562H4.75V14.2812H2.375V19.0469H0V30.9531H2.375V35.7188H4.75V40.4687H7.14062V42.8594H9.51562V45.2344H14.2812V47.625H19.0469V50H30.9531V47.625H35.7031V45.2344H40.4687V42.8594H42.8438V40.4687H45.2344V35.7188H47.6094V30.9531H50V19.0469H47.6094V14.2812ZM35.7031 26.1875H33.3281V28.5781H30.9531V30.9531H28.5625V33.3281H26.1875V35.7188H21.4219V38.0938H19.0469V11.9062H21.4219V14.2812H26.1875V16.6719H28.5625V19.0469H30.9531V21.4219H33.3281V23.8125H35.7031V26.1875Z"
              fill="white"/>
    </g>
    <defs>
        <clipPath id="clip0_460_20309">
            <rect width="50" height="50" fill="white"/>
        </clipPath>
    </defs>
</svg>
