<svg width="25" height="24" viewBox="0 0 25 24" fill="none" xmlns="http://www.w3.org/2000/svg">
    <g clip-path="url(#clip0_602_459)">
        <path d="M18.4154 14.8575H17.2679V17.145H14.9879V18.285H12.7004V19.425H16.1279V20.5725H17.2679V21.7125H18.4154V22.86H19.5554V24H20.7029V22.86H21.8429V21.7125H22.9829V20.5725H24.1304V19.425H22.9829V18.285H21.8429V17.145H20.7029V15.9975H19.5554V12.57H18.4154V14.8575Z"
              fill="#161616"/>
        <path d="M19.5554 8.0025H20.7029V12.57H19.5554V8.0025Z" fill="#161616"/>
        <path d="M18.4155 5.71503H19.5555V8.00253H18.4155V5.71503Z" fill="#161616"/>
        <path d="M17.2681 3.42754H18.4156V5.71504H17.2681V3.42754Z" fill="#161616"/>
        <path d="M16.1279 9.1425H17.2679V11.43H16.1279V9.1425Z" fill="#161616"/>
        <path d="M14.988 6.85503H16.128V9.14253H14.988V6.85503Z" fill="#161616"/>
        <path d="M14.988 2.28752H17.268V3.42752H14.988V2.28752Z" fill="#161616"/>
        <path d="M12.7004 5.71503H14.9879V6.85503H12.7004V5.71503Z" fill="#161616"/>
        <path d="M12.7004 1.14001H14.9879V2.28751H12.7004V1.14001Z" fill="#161616"/>
        <path d="M10.4131 4.57506H12.7006V5.71506H10.4131V4.57506Z" fill="#161616"/>
        <path d="M8.12549 19.425H12.7005V20.5725H8.12549V19.425Z" fill="#161616"/>
        <path d="M8.12549 0H12.7005V1.14H8.12549V0Z" fill="#161616"/>
        <path d="M5.84546 18.285H8.12546V19.425H5.84546V18.285Z" fill="#161616"/>
        <path d="M5.84546 1.14001H8.12546V2.28751H5.84546V1.14001Z" fill="#161616"/>
        <path d="M3.55786 17.145H5.84536V18.285H3.55786V17.145Z" fill="#161616"/>
        <path d="M3.55786 2.28752H5.84536V3.42752H3.55786V2.28752Z" fill="#161616"/>
        <path d="M2.41772 14.8575H3.55772V17.145H2.41772V14.8575Z" fill="#161616"/>
        <path d="M2.41772 3.42752H3.55772V5.71502H2.41772V3.42752Z" fill="#161616"/>
        <path d="M1.27051 12.57H2.41801V14.8575H1.27051V12.57Z" fill="#161616"/>
        <path d="M1.27051 5.71507H2.41801V8.00257H1.27051V5.71507Z" fill="#161616"/>
        <path d="M0.130371 8.0025H1.27037V12.57H0.130371V8.0025Z" fill="#161616"/>
    </g>
    <defs>
        <clipPath id="clip0_602_459">
            <rect width="24" height="24" fill="white" transform="translate(0.130371)"/>
        </clipPath>
    </defs>
</svg>
